<?xml version="1.0" encoding="UTF-8" standalone="no"?>
<!-- Generator: Adobe Illustrator 23.0.1, SVG Export Plug-In . SVG Version: 6.00 Build 0)  -->

<svg
   version="1.1"
   id="Layer_1"
   x="0px"
   y="0px"
   viewBox="0 0 500 85.677208"
   xml:space="preserve"
   sodipodi:docname="Auchan_Retail_logo.svg"
   width="500"
   height="85.677208"
   inkscape:version="1.4 (86a8ad7, 2024-10-11)"
   xmlns:inkscape="http://www.inkscape.org/namespaces/inkscape"
   xmlns:sodipodi="http://sodipodi.sourceforge.net/DTD/sodipodi-0.dtd"
   xmlns="http://www.w3.org/2000/svg"
   xmlns:svg="http://www.w3.org/2000/svg"><defs
   id="defs9" /><sodipodi:namedview
   id="namedview9"
   pagecolor="#ffffff"
   bordercolor="#000000"
   borderopacity="0.25"
   inkscape:showpageshadow="2"
   inkscape:pageopacity="0.0"
   inkscape:pagecheckerboard="0"
   inkscape:deskcolor="#d1d1d1"
   inkscape:zoom="2.7019404"
   inkscape:cx="168.3975"
   inkscape:cy="85.309063"
   inkscape:window-width="1920"
   inkscape:window-height="1001"
   inkscape:window-x="-9"
   inkscape:window-y="-9"
   inkscape:window-maximized="1"
   inkscape:current-layer="Layer_1" />
<style
   type="text/css"
   id="style1">
	.st0{fill:#E30613;}
</style>
<g
   id="g9"
   transform="matrix(2.5199179,0,0,2.5199179,-42.334621,-44.098563)">
	<path
   class="st0"
   d="m 143.2,38 c 2.7,-0.6 4.4,-2.6 4.4,-5.2 0,-3.1 -2.4,-5.3 -5.8,-5.3 h -5.4 c -0.4,0 -0.7,0.3 -0.7,0.7 0,0.4 0.3,0.7 0.7,0.7 h 5.2 c 2.6,0 4.4,1.6 4.4,3.9 0,2.3 -1.8,3.9 -4.4,3.9 h -5.2 c -0.4,0 -0.7,0.3 -0.7,0.7 0,0.4 0.3,0.7 0.7,0.7 h 4.9 l 5.2,6.9 c 0.2,0.3 0.4,0.4 0.7,0.4 0.4,0 0.8,-0.3 0.8,-0.8 0,-0.2 -0.1,-0.4 -0.3,-0.7 z"
   id="path1" />
	<path
   class="st0"
   d="m 163.5,43.9 h -10.3 v -7.2 h 8.8 c 0.4,0 0.7,-0.3 0.7,-0.7 0,-0.4 -0.3,-0.7 -0.7,-0.7 h -8.8 v -6.4 h 10.1 c 0.4,0 0.7,-0.3 0.7,-0.7 0,-0.4 -0.3,-0.7 -0.7,-0.7 h -10.8 c -0.4,0 -0.8,0.3 -0.8,0.8 v 16.3 c 0,0.5 0.3,0.8 0.8,0.8 h 11.1 c 0.4,0 0.7,-0.3 0.7,-0.7 -0.1,-0.5 -0.4,-0.8 -0.8,-0.8"
   id="path2" />
	<path
   class="st0"
   d="m 179.4,28.2 c 0,-0.4 -0.3,-0.7 -0.7,-0.7 h -12.5 c -0.4,0 -0.7,0.3 -0.7,0.7 0,0.4 0.3,0.7 0.7,0.7 h 5.5 v 15.8 c 0,0.5 0.3,0.8 0.8,0.8 0.5,0 0.8,-0.3 0.8,-0.8 V 28.9 h 5.5 c 0.3,0 0.6,-0.3 0.6,-0.7"
   id="path3" />
	<path
   class="st0"
   d="m 186.8,28.1 c -0.2,-0.5 -0.5,-0.7 -1,-0.7 -0.4,0 -0.7,0.2 -1,0.7 l -7.1,16.2 c -0.1,0.2 -0.2,0.3 -0.2,0.5 0,0.4 0.3,0.7 0.8,0.7 0.4,0 0.6,-0.4 0.7,-0.5 l 2.3,-5.3 h 8.9 l 2.3,5.3 c 0.1,0.3 0.4,0.5 0.8,0.5 0.4,0 0.8,-0.3 0.8,-0.8 0,-0.1 0,-0.3 -0.1,-0.4 z m 2.8,10.2 H 182 l 3.8,-8.7 z"
   id="path4" />
	<path
   class="st0"
   d="m 197.6,27.3 c -0.5,0 -0.8,0.3 -0.8,0.8 v 16.5 c 0,0.5 0.3,0.8 0.8,0.8 0.5,0 0.8,-0.3 0.8,-0.8 V 28.1 c 0,-0.4 -0.3,-0.8 -0.8,-0.8"
   id="path5" />
	<path
   class="st0"
   d="M 214.5,43.9 H 205 V 28.1 c 0,-0.4 -0.3,-0.8 -0.8,-0.8 -0.4,0 -0.8,0.3 -0.8,0.8 v 16.5 c 0,0.5 0.3,0.8 0.8,0.8 h 10.3 c 0.4,0 0.7,-0.3 0.7,-0.7 0.1,-0.5 -0.2,-0.8 -0.7,-0.8"
   id="path6" />
	<path
   class="st0"
   d="m 111.2,29.4 h -4.1 v 15.8 h 5.1 v -11 c 0.4,-0.5 1.5,-1.1 2.5,-1.1 1.5,0 2.4,0.8 2.4,2.3 v 9.7 h 5.1 V 34.8 c 0,-3.8 -1.7,-5.7 -5.3,-5.7 -2.7,0 -4.2,0.8 -5.3,2.1 z m -21.5,8.5 c 0,5.3 2,7.6 5.8,7.6 2.3,0 3.9,-0.8 4.8,-2.1 l 0.3,1.7 h 4.2 v -15 c -1.7,-0.5 -3.6,-1 -7.2,-1 -5.1,0 -7.9,3.1 -7.9,8.8 m 9.9,2.4 c -0.5,0.5 -1.2,1.1 -2.5,1.1 -1.4,0 -2.1,-1.3 -2.1,-3.7 0,-3 0.8,-4.5 2.5,-4.5 1,0 1.4,0.1 2.1,0.2 z M 78,23.5 H 72.9 V 45.2 H 78 v -11 c 0.4,-0.5 1.5,-1.1 2.5,-1.1 1.5,0 2.4,0.8 2.4,2.3 v 9.7 H 88 V 34.8 c 0,-3.8 -1.7,-5.7 -5.3,-5.7 -2.2,0 -3.4,0.5 -4.7,1.3 z M 63.2,37.2 c 0,-2.3 1.3,-3.7 3.8,-3.7 1.3,0 2.4,0.4 3.4,1 l 0.7,-4.3 c -1.4,-0.6 -2.9,-1 -5.4,-1 -5.1,0 -7.9,2.9 -7.9,8.3 0,5.4 2.6,8.1 7.8,8.1 2.5,0 4.8,-0.8 5.8,-1.4 l -0.7,-4 c -1.1,0.6 -2.3,1.1 -3.7,1.1 -2.5,-0.2 -3.8,-1.7 -3.8,-4.1 m -11.4,8 h 4.1 V 29.4 h -5.1 v 10.9 c -0.4,0.5 -1.5,1.1 -2.5,1.1 -1.5,0 -2.4,-0.8 -2.4,-2.3 v -9.7 h -5.1 v 10.4 c 0,3.8 1.7,5.7 5.3,5.7 2.7,0 4.2,-0.8 5.3,-2.1 z m -17.6,0 h 5.9 C 37.8,38.8 34.4,29.6 31.8,23.5 h -6.7 c -2.7,6.1 -6,15.3 -8.3,21.7 h 5.9 c 0.5,-1.5 1.1,-3.4 1.7,-5.5 h 8 c 0.7,2 1.3,3.9 1.8,5.5 m -3.1,-9.7 h -5.4 c 0.8,-2.6 1.7,-5.3 2.7,-7.9 1,2.6 1.9,5.3 2.7,7.9"
   id="path7" />
	<path
   class="st0"
   d="m 129,17.5 c 0.4,0 0.8,0.3 0.8,0.8 v 32.4 c 0,0.4 -0.3,0.8 -0.8,0.8"
   id="path8" />
	<path
   class="st0"
   d="m 129,51.5 v 0 c -0.4,0 -0.8,-0.3 -0.8,-0.8 V 18.3 c 0,-0.4 0.3,-0.8 0.8,-0.8"
   id="path9" />
</g>
</svg>
