<?xml version="1.0" encoding="utf-8"?>
<!-- Generator: Adobe Illustrator 25.3.0, SVG Export Plug-In . SVG Version: 6.00 Build 0)  -->
<svg version="1.1" id="Ebene_1" xmlns="http://www.w3.org/2000/svg" xmlns:xlink="http://www.w3.org/1999/xlink" x="0px" y="0px"
	 viewBox="0 0 221.8 200.9" style="enable-background:new 0 0 221.8 200.9;" xml:space="preserve">
<style type="text/css">
	.st0{fill:#BA1B1B;}
	.st1{fill:#FFFFFF;}
	.st2{fill:#E73F0C;}
</style>
<g>
	<g>
		<path class="st0" d="M221.8,100.4L221.8,100.4c0,8.1-7.5,15.2-7.5,15.2c2.7,6.5-4,9.5-4,9.5c1.8,7.3-0.7,12.6-0.7,12.6
			c-5.1,13.1-20.4,16.2-20.4,16.2c-3.6,1-17.6,2.3-17.6,2.3c-5.4,0.6-7.6,3-7.6,3c2,2.7,1.4,7.3,1.4,7.3c-1.9,7.5-9.1,3-9.1,3
			c-3.3,18.2-28.1,12.7-28.1,12.7c-1.1,6.3-7.5,6-7.5,6c-0.7,13.2-9.9,12.6-9.9,12.6s-9.1,0.5-9.9-12.6c0,0-6.4,0.3-7.5-6
			c0,0-24.7,5.5-28.1-12.7c0,0-7.2,4.4-9.1-3c0,0-0.6-4.6,1.4-7.3c0,0-2.2-2.4-7.6-3c0,0-14-1.3-17.6-2.3c0,0-15.3-3.1-20.4-16.2
			c0,0-2.5-5.3-0.7-12.6c0,0-6.7-3-4-9.5c0,0-7.5-7.1-7.5-15.2c0-8,7.5-15.2,7.5-15.2c-2.7-6.5,4-9.5,4-9.5
			c-1.8-7.3,0.7-12.6,0.7-12.6C17.2,50,32.5,47,32.5,47c3.6-1,17.6-2.3,17.6-2.3c5.4-0.6,7.6-3,7.6-3c-2-2.7-1.4-7.3-1.4-7.3
			c1.9-7.5,9.1-3,9.1-3c3.3-18.2,28.1-12.7,28.1-12.7c1.1-6.3,7.5-6,7.5-6C101.8-0.5,110.9,0,110.9,0s9.1-0.5,9.9,12.6
			c0,0,6.4-0.3,7.5,6c0,0,24.7-5.5,28.1,12.7c0,0,7.2-4.4,9.1,3c0,0,0.6,4.6-1.4,7.3c0,0,2.2,2.4,7.6,3c0,0,14,1.3,17.6,2.3
			c0,0,15.3,3.1,20.4,16.2c0,0,2.5,5.3,0.7,12.6c0,0,6.7,3,4,9.5C214.4,85.2,221.8,92.3,221.8,100.4"/>
		<path class="st1" d="M218.1,100.4c0,12.6-16,15.9-16,15.9c-0.1,0.2,0,0,0,0c3.5,3,5.1,10.4,5.1,10.4c3,13.3-9.6,20.4-9.6,20.4
			c-6.4,4.8-21.1,5.5-21.1,5.5c-17.3,1-16.4,7-16.4,7c3.4,2.9,2.6,5.8,2.6,5.8c-0.8,3.4-3.6,1.5-3.6,1.5c-2-1.7-2.1-5.9-2.1-5.9
			c-11.2-3.6-29.6,11.6-29.6,11.6c16.3,5.8,22,0,22,0c1.2-1.2,0-2.2,0-2.2c-5.4-3.2-13,1.4-13,1.4c-1.2,0.8-1-0.1-1-0.1
			c1.5-7.6,9.2-7.1,9.2-7.1c4,0.1,6.1,1.5,7.4,3.4c1.5,2.1,0.4,4.6,0.4,4.6c-5.7,13.6-30.9,4.5-30.9,4.5c-3.5,1.9-5.7,4.5-5.7,4.5
			c6,14.6-4.2,16.2-4.7,16.1h-0.1c-0.7,0-10.7-1.5-4.7-16.1c0,0-2.2-2.6-5.7-4.5c0,0-25.3,9.1-30.9-4.5c0,0-1.1-2.5,0.4-4.6
			c1.4-1.9,3.4-3.3,7.4-3.4c0,0,7.6-0.6,9.2,7.1c0,0,0.1,0.9-1,0.1c0,0-7.6-4.6-13-1.4c0,0-1.2,1,0,2.2c0,0,5.6,5.8,22,0
			c0,0-18.4-15.2-29.6-11.6c0,0-0.1,4.2-2.1,5.9c0,0-2.7,1.8-3.6-1.5c0,0-0.8-2.9,2.6-5.8c0,0,0.9-6-16.4-7c0,0-14.7-0.7-21.1-5.5
			c0,0-12.6-7.1-9.6-20.4c0,0,1.6-7.4,5.1-10.4c0,0,0.1,0.2,0,0c0,0-16-3.3-16-15.9c0-12.6,16-15.9,16-15.9c0.1-0.2,0,0,0,0
			c-3.5-3-5.1-10.4-5.1-10.4c-3-13.3,9.6-20.4,9.6-20.4c6.4-4.8,21.1-5.5,21.1-5.5c17.3-1,16.4-7,16.4-7c-3.4-2.9-2.6-5.8-2.6-5.8
			c0.8-3.4,3.6-1.5,3.6-1.5c2,1.7,2.1,5.9,2.1,5.9C76,43.3,94.4,28.1,94.4,28.1c-16.3-5.8-22,0-22,0c-1.2,1.2,0,2.2,0,2.2
			c5.4,3.2,13-1.4,13-1.4c1.2-0.8,1,0.1,1,0.1c-1.5,7.6-9.2,7.1-9.2,7.1c-4,0-6.1-1.5-7.4-3.4c-1.5-2.1-0.4-4.6-0.4-4.6
			c5.7-13.6,30.9-4.5,30.9-4.5c3.5-1.9,5.7-4.5,5.7-4.5c-6-14.6,4-16.1,4.7-16.1h0.1c0.6-0.1,10.7,1.5,4.7,16.1c0,0,2.2,2.6,5.7,4.5
			c0,0,25.3-9.1,30.9,4.5c0,0,1.1,2.5-0.4,4.6c-1.4,1.9-3.4,3.3-7.4,3.4c0,0-7.6,0.5-9.2-7.1c0,0-0.1-0.9,1-0.1c0,0,7.6,4.6,13,1.4
			c0,0,1.2-1,0-2.2c0,0-5.6-5.8-22,0c0,0,18.4,15.2,29.6,11.6c0,0,0-4.2,2.1-5.9c0,0,2.7-1.8,3.6,1.5c0,0,0.8,2.9-2.6,5.8
			c0,0-1,6,16.4,7c0,0,14.7,0.7,21.1,5.5c0,0,12.6,7.1,9.6,20.4c0,0-1.6,7.4-5.1,10.4c0,0-0.1-0.2,0,0
			C202.1,84.5,218.1,87.8,218.1,100.4"/>
		<path class="st1" d="M209.7,84.6c-1.6,0-3-1.3-3-3s1.3-3,3-3c1.6,0,3,1.3,3,3S211.3,84.6,209.7,84.6"/>
		<path class="st1" d="M121.8,21.1c1.6,0,3-1.3,3-3c0-1.6-1.3-3-3-3c-1.6,0-3,1.3-3,3C118.8,19.8,120.2,21.1,121.8,21.1"/>
		<path class="st1" d="M12.2,84.6c1.6,0,3-1.3,3-3c0-1.6-1.3-3-3-3c-1.6,0-3,1.3-3,3C9.2,83.3,10.5,84.6,12.2,84.6"/>
		<path class="st1" d="M100,21.1c-1.6,0-3-1.3-3-3c0-1.6,1.3-3,3-3c1.6,0,3,1.3,3,3C103,19.8,101.7,21.1,100,21.1"/>
		<path class="st1" d="M209.7,116.2c-1.6,0-3,1.3-3,3c0,1.6,1.3,3,3,3c1.6,0,3-1.3,3-3C212.6,117.6,211.3,116.2,209.7,116.2"/>
		<path class="st1" d="M121.8,179.7c1.6,0,3,1.3,3,3c0,1.6-1.3,3-3,3c-1.6,0-3-1.3-3-3C118.8,181,120.2,179.7,121.8,179.7"/>
		<path class="st1" d="M12.2,116.2c1.6,0,3,1.3,3,3c0,1.6-1.3,3-3,3c-1.6,0-3-1.3-3-3C9.2,117.5,10.5,116.2,12.2,116.2"/>
		<path class="st1" d="M100,179.7c-1.6,0-3,1.3-3,3c0,1.6,1.3,3,3,3c1.6,0,3-1.3,3-3C103,181,101.7,179.7,100,179.7"/>
		<path class="st0" d="M16.1,100.4v0.1c0,0-1,7.6,7.7,14.3c0,0-6.1,16.2,12.6,24.6c0,0,11.2,4.3,13.1,5.1c0,0,6.9,2.1,10,5.9
			c0,0,2.1,2.4,2.8,3.8c0,0,1.6,3,1.9,3.8c0,0,5-2.2,9.4-2.4c0,0,7.8-1.5,19.1,2.5c0,0,11.2,4,17.5,8.3l0.7,0.5l0.7-0.5
			c6.2-4.3,17.5-8.3,17.5-8.3c11.3-4.1,19.1-2.5,19.1-2.5c4.4,0.2,9.4,2.4,9.4,2.4c0.3-0.8,1.9-3.8,1.9-3.8c0.7-1.4,2.8-3.8,2.8-3.8
			c3.1-3.8,10-5.9,10-5.9c1.9-0.8,13.1-5.1,13.1-5.1c18.7-8.4,12.6-24.6,12.6-24.6c8.6-6.7,7.7-14.3,7.7-14.3v-0.1v-0.1
			c0,0,1-7.6-7.7-14.3c0,0,6.1-16.2-12.6-24.6c0,0-11.2-4.3-13.1-5.1c0,0-6.9-2.1-10-5.9c0,0-2.1-2.4-2.8-3.8c0,0-1.6-3-1.9-3.8
			c0,0-5,2.2-9.4,2.4c0,0-7.8,1.5-19.1-2.5c0,0-11.2-4-17.5-8.3l-0.7-0.5l-0.7,0.5c-6.2,4.3-17.5,8.3-17.5,8.3
			c-11.3,4.1-19.1,2.5-19.1,2.5c-4.4-0.2-9.4-2.4-9.4-2.4c-0.3,0.8-1.9,3.8-1.9,3.8c-0.7,1.4-2.8,3.8-2.8,3.8
			c-3.1,3.8-10,5.9-10,5.9c-1.9,0.8-13.1,5.1-13.1,5.1C17.7,69.8,23.8,86,23.8,86c-8.6,6.7-7.7,14.3-7.7,14.3V100.4z"/>
		<path class="st0" d="M121.2,30c0,0,9.7,7,15.5,9.1c0,0,7.1,3.4,13.9,3.2c0,0-5.6,1.3-14.4-1.8c0,0-5.6-2-8.5-3.4
			c0,0-7.4-3.3-9.8-5.7C117.9,31.4,119.4,30.6,121.2,30"/>
		<path class="st0" d="M164.9,49L164.9,49c0,0,5.5,2,11.8,2.9c0,0,6.6,1.1,12.8,3.1c0,0,9.6,3,12.7,11.1c0,0,3.1,7.2,0.2,13
			c0,0,2.9-10.4-7.6-18.4c0,0-3.2-2.9-7.7-4c0,0-4.4-1.4-6.7-1.8C180.4,54.8,167.8,52.3,164.9,49"/>
		<path class="st0" d="M100.6,30c0,0-9.7,7-15.5,9.1c0,0-7.1,3.4-13.9,3.2c0,0,5.6,1.3,14.4-1.8c0,0,5.6-2,8.5-3.4
			c0,0,7.4-3.3,9.8-5.7C104,31.4,102.4,30.6,100.6,30"/>
		<path class="st0" d="M57,49L57,49c0,0-5.5,2-11.8,2.9c0,0-6.6,1.1-12.8,3.1c0,0-9.6,3-12.7,11.1c0,0-3.1,7.2-0.2,13
			c0,0-2.9-10.4,7.6-18.4c0,0,3.2-2.9,7.7-4c0,0,4.4-1.4,6.7-1.8C41.4,54.8,54,52.3,57,49"/>
		<path class="st0" d="M110.9,5.1c-1.4,0-1.9,1.1-1.9,1.1c-0.5,1-0.4,1.8-0.4,1.8s-0.5,3,2.3,6.4c2.8-3.4,2.3-6.4,2.3-6.4
			s0-0.8-0.4-1.8C112.8,6.2,112.3,5.1,110.9,5.1"/>
		<polygon class="st0" points="114.9,25.2 110.9,22.2 106.9,25.2 110.9,28.1 		"/>
		<path class="st0" d="M121.2,170.8c0,0,9.7-7,15.5-9.1c0,0,7.1-3.4,13.9-3.2c0,0-5.6-1.3-14.4,1.8c0,0-5.6,2-8.5,3.4
			c0,0-7.4,3.3-9.8,5.7C117.9,169.4,119.4,170.2,121.2,170.8"/>
		<path class="st0" d="M164.9,151.9L164.9,151.9c0,0,5.5-2,11.8-2.9c0,0,6.6-1.1,12.8-3.1c0,0,9.6-3,12.7-11.1c0,0,3.1-7.2,0.2-13
			c0,0,2.9,10.4-7.6,18.4c0,0-3.2,2.9-7.7,4c0,0-4.4,1.4-6.7,1.8C180.4,146,167.8,148.6,164.9,151.9"/>
		<path class="st0" d="M100.6,170.8c0,0-9.7-7-15.5-9.1c0,0-7.1-3.4-13.9-3.2c0,0,5.6-1.3,14.4,1.8c0,0,5.6,2,8.5,3.4
			c0,0,7.4,3.3,9.8,5.7C104,169.4,102.4,170.2,100.6,170.8"/>
		<path class="st0" d="M57,151.9L57,151.9c0,0-5.5-2-11.8-2.9c0,0-6.6-1.1-12.8-3.1c0,0-9.6-3-12.7-11.1c0,0-3.1-7.2-0.2-13
			c0,0-2.9,10.4,7.6,18.4c0,0,3.2,2.9,7.7,4c0,0,4.4,1.4,6.7,1.8C41.4,146,54,148.6,57,151.9"/>
		<path class="st0" d="M110.9,195.7c-1.4,0-1.9-1.1-1.9-1.1c-0.5-1-0.4-1.8-0.4-1.8s-0.5-3,2.3-6.4c2.8,3.4,2.3,6.4,2.3,6.4
			s0,0.8-0.4,1.8C112.8,194.7,112.3,195.7,110.9,195.7"/>
		<path class="st0" d="M10.9,100.4c0,0-0.6,6.8,5.8,12.5c0,0-7.8-3.3-7.8-12.5c0-9.2,7.8-12.5,7.8-12.5
			C10.2,93.6,10.9,100.4,10.9,100.4"/>
		<path class="st0" d="M213.1,100.4L213.1,100.4c0,9.2-7.8,12.5-7.8,12.5c6.5-5.7,5.8-12.5,5.8-12.5s0.6-6.8-5.8-12.5
			C205.3,87.9,213.1,91.2,213.1,100.4"/>
		<polygon class="st0" points="114.9,175.7 110.9,178.6 106.9,175.7 110.9,172.8 		"/>
		<path class="st1" d="M110.9,156.8c48,0,86.9-25.2,86.9-56.4c0-31.1-38.9-56.4-86.9-56.4S24,69.3,24,100.4
			C24,131.5,62.9,156.8,110.9,156.8"/>
		<path class="st2" d="M110.9,154.4c47.5,0,86-24.2,86-54c0-29.8-38.5-54-86-54c-47.5,0-86,24.2-86,54
			C24.9,130.2,63.4,154.4,110.9,154.4"/>
		<path class="st0" d="M135.9,75.1c0-0.3-0.3-0.2-0.3-0.2c-0.4,0.6-1.1,0.9-1.8,1c-1.8,0.3-3.2-0.5-4.7-1.1c-1-0.1-1.7,0.4-2.5,0.7
			c-4,2-7.3,5.3-10,8.9c-1.7,2.4-3.2,4.9-3.6,7.8c-0.1,0.8,0.1,1.6,0.7,2.1c0.6,0.4,1.2,0.5,2,0.4c0.2-0.2-0.1-0.3-0.1-0.5
			c0-1.8,1.6-3,2.5-4.4l1.7-2.1c0.2,0,0.4-0.1,0.6,0c0.1,0.2-0.1,0.6,0.2,0.8l0,3.5c0.1,0.1,0.1,0.2,0.2,0.3c1-0.7,1.7-1.8,2.4-2.7
			c0.6-1,1.2-1.9,1.3-3c0-0.8-1.1-0.5-1.6-0.8c-0.9-0.3-1.9-0.7-2.5-1.4c-0.1-0.2,0-0.5,0-0.7c0.8-0.9,2.1-0.8,3.3-1l2.4-0.1
			c1.1-0.6,2.2-1.5,3.5-0.9c1.2,0.5,2.4,0.9,3.7,0.8c1-0.3,2.2-1.2,2.7-2.1C135.9,78.8,135.9,76.9,135.9,75.1L135.9,75.1z"/>
		<path class="st0" d="M177.7,96.6c-0.3,0.1-0.6,0.1-0.9,0.1c-1.7,0.2-3.5,0.2-4.9-0.4c-0.5-0.2-0.9-0.7-1-1.2
			c0.1-1.8,2.2-3,3.6-3.6c1-0.7,2.4-1.3,2.8-2.5l0.1-0.2L177.7,96.6z"/>
		<path class="st0" d="M155.6,91.1c-2.8,2.2-6.1,3.6-9.8,3.7c0,0-0.1,0-0.1-0.1c0.7-0.3,0.9-0.5,1.5-0.9c0.1-0.6-0.8-0.2-1.2-0.4
			c-0.6-0.1-0.7-0.2-1.4,0c-0.4,0.5-0.6,0.5-1,1c-0.1,0.1-0.3,0-0.4,0c-0.9-0.4-1.4-1.2-1.4-2.2c0.2-2.3,1.6-4.2,3.4-5.7
			c2.2,0.6,4.7,0.8,7.1,0.4c1.2-0.2,2.7-1,3-2.3l0-0.9l0.3,1c-0.2,1.7-0.1,3.3,0,5V91.1z"/>
		<path class="st0" d="M103.3,91c-0.1-1.7-0.1-3.5,0-5.3l-0.1-1.1c-0.2,1.5-1.8,2.4-3.1,2.7C97.7,88,95,87.6,92.8,87
			c-0.5,0.2-0.7,0.7-1.1,1.1c-1.3,1.7-2.6,3.5-2.2,5.8c0.2,0.6,0.7,1.2,1.4,1.4h0.2l1.2-1.3c0.6-0.2,1.1,0.3,1.6,0.4
			c0.4,0.1,0.6,0.1,0.9,0.3c-0.3,0.2-0.3,0.2-0.4,0.3C94,95,93.6,95,93.2,95.2l0.1,0.3c2.4,0,5-0.7,7.1-1.5c1-0.4,2-0.9,2.9-1.6
			L103.3,91z"/>
		<path class="st0" d="M84,86.5c-2.3,2.6-5.5,4.3-8.8,5.2c-0.3,0-0.7,0.3-0.9,0c-0.7-1.6-1.2-3.3-1.7-5L72.6,86
			c0.2-0.5,0.9-0.3,1.3-0.4c3.9-0.7,7.8-2.3,10.2-5.7c0.3-0.5,0.5-1.1,0.8-1.7c0.2,0.1,0.3,0.4,0.4,0.7l0,4.7c0,0.4-0.1,1,0.3,1.1
			L84,86.5z"/>
		<path class="st0" d="M189.4,91.7l-0.1,5c-0.2,0.5-0.6,1-1,1.4c-3.4,3.7-7.8,6.4-13,6.5c-2.8,0-5.3-0.5-7.6-1.8
			c-1-0.6-2.3-1.6-2.5-2.8c0-2.2-0.2-4.4-0.2-6.6c-0.1-0.3-0.3-0.5-0.7-0.5c-0.3,0-0.7-0.1-0.8,0.2c-1.4,2.4-3.5,4.3-5.9,5.9
			c-4,2.5-8.1,4.6-13.1,4.9l-2.3-0.1c-2.7-0.3-6.1-1.4-6.8-4.3c0-1.9,0-3.6-0.1-5.5l-0.5-0.3c-1.3,0-2.5,0-3.6,0.6
			c-3.5,4.1-8.2,7.1-13.1,8.7c-3.8,1.3-8.6,0.8-11.4-2.2c-0.4-0.3-0.7-0.9-1.2-1.1c-0.6-0.1-1,0.3-1.5,0.6c-2.4,2-5.1,3.2-8.1,3.6
			c-0.8,0.2-1.7,0.2-2.5,0.4c0,1.6-0.1,3.1-0.1,4.7c-0.3,0.8-1.3,1.3-2.1,1.7c-3.5,1.4-8,2.5-11.8,1c-3.2-1.2-4.2-2.4-5.9-4.3
			c-4-4.8-6.2-10.6-7.5-16.4L66,91c-0.3-0.1-0.7,0-0.9,0.1c-5,6.5-11.4,13.5-19.1,16.6c-3.8,1.7-9.2,1.9-12.9-0.1
			c-0.8-0.5-1.9-1.2-2.2-2.2l-0.1-4.5l0-0.3l0-0.7c2.1,2.2,5.2,2.2,8.2,2.4c5.9,0.1,10.7-2.8,15.1-6.3c8.7-7.4,14.9-16.6,20.3-25.8
			l0.2-0.3c0.7-0.1,1.2,0.3,1.8,0.4c1.4,0.6,2.6,2.1,2.6,3.6c0.2,1.3-0.1,2.6-0.4,3.7c-1.4,3-5,4.8-8,5.6c-1.3,0.3-2.6,0.4-3.9,0.5
			c-0.2,0.1-0.4,0.3-0.4,0.5c1.5,6.9,3.5,13.8,9.5,18.6c4.3,3.3,11.3,4.5,16.4,1.9c0.6-0.4,1.5-0.9,1.5-1.7c0-0.4-0.2-0.7-0.5-1
			c-0.6-0.4-1.5-0.5-2.3-0.3c-1.9,0.2-2.7,1.8-4.5,2.3l-0.8-0.3c-0.5-0.6-1.3-1-1.9-1.5c-2.5-1.7-1.1-5-1.5-7.5c0,0-0.5-3.6,0.4-5.2
			c-0.8,1.7-0.5,4,0.8,5.5c2.2,2.2,5.1,2.5,8.2,2.7c5.2-0.3,9.6-2.4,13.9-4.8c0.3-0.1,0.6-0.6,0.9-0.3c0.5,1.4,1.7,2.6,3,3.3
			c1.9,0.9,4.2,1.2,6.4,1c5.3-0.9,10.1-3.1,13.9-7.2c0.7-0.8,1.3-1.7,1.9-2.5l5.7-0.6c0.1,0,0.1,0.1,0.1,0.1
			c-1.7,1.7-2.6,4.1-1.8,6.5c0.4,1.2,1.7,2.3,2.8,2.9c3.9,1.7,9.3,1.4,13.1-0.4c3.8-1.6,7.5-4.2,10.2-7.5c0.8-0.8,1.2-1.7,1.7-2.7
			c0.1-0.1,0.2,0,0.4,0c1.7,1,3.6,1.4,5.7,1.5c0.2,0,0.4,0.1,0.6,0.2c0.1,0.2,0,0.3-0.2,0.5c-2.1,1.1-4.2,3-4.4,5.5
			c0,2,2.1,3.3,3.7,4.1c4.1,1.7,9.4,1.1,13.2-0.8c2.4-1.2,5-3,6.3-5.3l0.2-0.4C189.1,90.9,189.4,91,189.4,91.7"/>
		<path class="st0" d="M67.5,70.8l-0.2,0.4L62.5,78l-5.4,7.1c-2.4,3-4.6,5.9-7.2,8.7c-0.1,0.1-0.2,0-0.4-0.1l-0.2-0.3
			c-0.2-2.5-0.5-5-0.5-7.6l0.1-0.1c0.6,1,1.5,1.7,2.6,2c1.2,0.3,2.5,0.2,3.3-0.8c0.2-0.2-0.1-0.4-0.1-0.6c-0.3-1.2-0.6-2.6-0.1-3.8
			C56.2,77.1,61.7,71.9,67.5,70.8L67.5,70.8z"/>
		<path class="st0" d="M152,83.8c0,0.3-0.3,0.6-0.5,0.8c-1.1,0.7-2.6,1.4-4,1.2c-0.2-0.1-0.5-0.5-0.5-0.7c1.2-0.8,2.9-1.5,4.5-1.6
			C151.6,83.5,152,83.6,152,83.8"/>
		<path class="st0" d="M99.2,84.4c-1,1.1-2.5,1.6-4,1.6c-0.1,0-0.7-0.2-0.7-0.3c0-0.3,0.7-0.7,0.9-0.9c1.1-0.6,2.4-1.1,3.7-0.9
			L99.2,84.4z"/>
		<path class="st1" d="M177.7,95.7l0.1,0.1c0.4,0.1,0.9-0.1,1.1-0.4c0.1-1.4,0-2.8,0-4.2c-0.1-0.6-0.5-1.3-1.1-1.5
			c-0.1,0-0.2,0.2-0.3,0.3C177.6,91.8,177.6,93.8,177.7,95.7"/>
		<path class="st1" d="M83.9,103.6c0.1,0.1,0.3,0.2,0.4,0.2c0,0,0,0,0,0h0c0.3,0.2,0.7,0.3,1.1,0.2c0.1,0,0.2-0.1,0.2-0.2
			c-0.5-0.6-1.3-1-1.9-1.5c-2.5-1.7-1.1-5-1.5-7.5c-0.4-0.2-0.8,0.1-1.1,0.4L81,98.9c-0.1,0.7,0,1.4,0.3,2l0,0
			C81.7,102,83.2,103.1,83.9,103.6"/>
		<path class="st1" d="M103.3,91c0,0.2,0.2,0.3,0.4,0.2c0.4-0.2,0.6-0.5,0.7-1c0-1.1,0.1-2.5-0.2-3.6c-0.2-1.1-0.8-1.1-0.8-1.1
			c-0.2,0-0.2,0.2-0.2,0.2v2.9h0C103.2,89.4,103.2,90.2,103.3,91"/>
		<path class="st1" d="M30.6,99.5L30.6,99.5c0,0,0,0,0,0.1c0,0,0,0.1,0,0.1c0.1,0.3,0.6,0.8,1.8,1.4c0.1,0.1,0.2,0.1,0.3,0.2
			c0,0,0,0,0,0c0.8,0.3,1.6,0.6,2.4,0.7c1.1,0.2,3.3,0.5,5.8,0.2c0.2,0,0.4,0,0.6-0.1c0,0,0.1,0,0.1,0c4.7-0.7,8.7-3.2,12.5-6.1
			c5.4-4.5,9.8-9.8,13.6-15.2c0.9-1.4,2.9-4.3,4.9-7.6c0.4-0.6,0.8-1.3,1.2-2c0.3-0.4,0.5-0.9,0.8-1.3c0,0,0.8,0,1.9,0.4h0
			c0.4,0.2,0.7,0.4,1,0.6c0.3,0.2,1.7,1.2,1.7,3.6c0,0.8-0.2,2.2-1,3.6c0,0.1-0.1,0.1-0.1,0.2c0,0,0,0.1,0,0.1
			c0,0.1-0.1,0.2-0.2,0.3c0,0.1-0.1,0.1-0.1,0.2c0,0.1-0.1,0.1-0.2,0.2c-0.6,0.8-1.3,1.4-2.1,2c-0.1,0.1-0.2,0.1-0.2,0.2
			c-0.1,0-0.1,0.1-0.2,0.1c-0.7,0.5-1.6,0.9-2.6,1.3c-0.6,0.2-1.2,0.4-1.8,0.6c-1.2,0.3-2.5,0.4-3.8,0.5c0,0-0.1,0-0.1,0
			c0,0,0,0,0,0h0c-0.1,0-0.2,0.1-0.3,0.1c0,0-0.1,0.1-0.1,0.4c0,0,0,0,0,0c1.5,6.9,3.5,13.8,9.5,18.6c4.3,3.3,11.3,4.5,16.4,1.9
			c0.6-0.4,1.5-0.9,1.5-1.7c0-0.4-0.2-0.7-0.5-1c-0.6-0.4-1.5-0.5-2.3-0.3c-1.9,0.2-3.1,2-4.9,2.6c-1.6,0.7-3-0.3-4.2-1.3
			c-3.4-3-5.5-6.7-7.1-10.5c0-0.1-0.1-0.2,0-0.3c0.6,0.5,1.3,1,2.2,0.7c1.5-0.7,2.9-1.5,4.3-2.5c0.4-0.3,0.8-0.7,1.3-1
			c0.1,0,0,0.1,0,0.1c-0.9,1.7-0.5,4,0.8,5.5c0.9,0.9,1.9,1.5,3,1.9c1.9,0.7,3.8,0.9,5,0.8c0,0,0.1,0,0.1,0c0.1,0,0.2,0,0.3,0
			c0.2,0,0.4,0,0.5,0c4.8-0.4,9-2.4,13.1-4.7c0.3-0.1,0.6-0.5,0.9-0.3c0.5,1.4,1.7,2.6,3,3.3c1.9,0.9,4.2,1.2,6.4,1
			c5.3-0.9,10.1-3.1,13.9-7.2c0.7-0.8,1.3-1.7,1.9-2.5l5.7-0.6c0.1,0,0.1,0.1,0.1,0.1c-1.7,1.7-2.6,4.1-1.8,6.5
			c0.4,1.2,1.7,2.3,2.8,2.9c3.9,1.7,9.3,1.4,13.1-0.4c3.8-1.6,7.5-4.2,10.2-7.5c0.8-0.8,1.2-1.7,1.7-2.7c0.1-0.1,0.2,0,0.4,0
			c1.7,1,3.6,1.4,5.7,1.5c0.2,0,0.4,0.1,0.6,0.2c0.1,0.2,0,0.3-0.2,0.4c-2.1,1.1-4.2,3-4.4,5.5c0,2,2.1,3.3,3.7,4.1
			c4.1,1.7,9.5,1.1,13.2-0.8c2.4-1.2,5-3,6.3-5.3c0.6-1,0.4-2.4-0.2-3.3c-0.4-0.6-1-0.9-1.7-1c-0.2,0-0.3,0.1-0.3,0.1
			c-0.4,0.4-0.1,1.2-0.1,1.7c0,0,0,0.4-0.1,0.6c0,0.2-0.2,0.8-0.2,0.8c-1.3,3.8-5.4,6.2-9.3,6.6c-1.7,0.2-3.5,0.2-4.9-0.4
			c-0.5-0.2-0.9-0.7-1-1.3c0.1-1.8,2.2-3,3.6-3.6c1-0.7,2.4-1.3,2.8-2.5c0.3-1.1-0.2-2.1-1.1-2.7c-3.3-1.9-7.5-1.7-11.4-2.1
			c-0.3,0-0.6-0.1-0.9-0.3c-0.2-0.8-0.2-1.7-0.3-2.6c-0.3-1.2-0.4-2.6-1.5-3.3c-0.6-0.2-1.1,0.2-1.5,0.6c-0.8,1-0.6,2.6,0.1,3.7
			c0.3,0.7,1.1,1.1,1,2c-0.6,1.1-1.3,2.1-2.1,3.1c-3.6,4.3-8.3,7.5-13.9,7.7c0,0-0.1,0-0.1-0.1c0.6-0.3,0.9-0.5,1.5-0.9
			c0.4-0.4-0.5-0.3-1.2-0.4c-0.6-0.1-1-0.4-1.4-0.2c-0.4,0.5-0.6,0.7-1,1.2c-0.1,0.1-0.3,0-0.4,0c-0.9-0.4-1.4-1.3-1.4-2.2
			c0.2-2.3,1.6-4.2,3.4-5.7c2.2,0.6,4.7,0.8,7.1,0.4c1.2-0.2,2.7-1,3-2.3c0.1-0.5,0.1-1.1-0.3-1.5c-1.1-1-2.5-1.1-4-1.2
			c-2.7,0-5.2,0.5-7.6,1.3c-1.2,0.6-2.4,0.9-3.5,1.6c-2.6,0.4-5.4,0.6-8,0.9l-0.1-0.1c-0.6-1.5-2.2-2.4-3.7-2.8
			c-0.1,0-0.2-0.1-0.2-0.2c0.3-0.3,0.8,0,1.1,0c1.5,0.6,3.4,1.1,5.1,0.7c1.4-0.4,2.9-1.3,3.1-2.8c-0.1-2,0.5-4.2-1-5.6
			c-0.1-0.1-0.3,0-0.4,0.1c0.1,1.8,0.1,3.6,0,5.2c-0.4,0.9-1.2,1.5-2.2,1.8c-1.2,0.4-3.1,0.1-4.2-0.5c-1.3-0.6-2.5,0.3-3.5,0.9
			c0,0-5.2,0-5.7,1.1c0,0-0.1,0.2-0.1,0.5c0,0,0,0,0,0c0,0,0,0.1,0,0.1c0,0,0,0,0,0l0,0c0,0,0,0.1,0,0.1c0,0,0.6,0.8,2.4,1.3
			c0.2,0,0.4,0.1,0.7,0.1c0.5,0,1,0.1,1,0.6c-0.2,1.1-0.8,2-1.3,3c-0.7,1-1.4,2-2.4,2.7c-0.1,0-0.1-0.2-0.2-0.3l0-3.5l0,0l0-0.5
			c0-0.3-0.3-0.4-0.4-0.4c0,0,0,0-0.1,0c0,0-0.1,0-0.1,0c-0.2,0-0.3,0.1-0.4,0.2c-0.1,0.1-0.1,0.1-0.2,0.2c-0.4,0.5-1,1.3-1,1.3
			c-1.2,1.5-2.2,2.9-2.2,2.9c0,0,0,0.1-0.1,0.1c0,0,0,0,0,0c-0.1,0.2-0.2,0.4-0.3,0.5v0c-0.3,0.5-0.3,0.9-0.3,1.1v0
			c0,0.1,0,0.1,0,0.1h0c0,0.1,0,0.1,0,0.1c0,0,0,0,0,0c0,0,0,0,0,0c0.1,0.1,0.2,0.3,0.1,0.4c-0.7,0.1-1.4,0-1.9-0.4
			c-0.6-0.5-0.7-1.3-0.7-2.1c0.4-3,1.9-5.4,3.6-7.8c2.6-3.6,5.8-6.9,9.8-8.9c0,0,0,0,0.1,0c0,0,0,0,0.1,0c0,0,0,0,0,0
			c0.4-0.2,1.9-0.9,2.5-0.6c1.4,0.6,2.9,1.4,4.7,1.1c0.7-0.1,1.5-0.4,1.8-1c0.1-0.4-0.1-0.8-0.4-1.1c-0.5-0.5-1.1-0.7-1.8-0.9l0,0
			c0,0-0.1,0-0.1,0c-0.5-0.1-1.1-0.2-1.6-0.1c-3.4,0-7,1.3-7,1.3l0,0c-5.3,1.8-10.2,4.9-14.4,9.1c-2.1,2.2-2.8,3.2-3.7,5.2
			c-0.2,0.5-0.3,1.5-0.9,2c-1.5,1.7-3.4,2.8-5.4,3.6c-2.1,0.8-4.7,1.5-7.1,1.5l0.6-0.3c0.4-0.2,0.3-0.2,0.6-0.3
			c0.1,0,0.7-0.5,0.1-0.6c-0.7-0.1-0.7-0.1-1.1-0.2c-0.6-0.2-0.9-0.4-1.4,0l-0.9,1.1H91c-0.7-0.1-1.2-0.8-1.4-1.4
			c-0.4-2.1,0.8-3.9,2-5.5c0.3-0.3,0.8-0.9,1.3-1.3c2.2,0.6,4.8,1,7.1,0.4c1.4-0.3,2.9-1.3,3.2-2.7c0-0.7-0.4-1.3-1-1.6
			c-1.7-1.1-4.1-1.2-6.2-0.9c-4,0.6-7.7,2-11,4.6c-0.2,0.1-0.2-0.1-0.3-0.2c-0.2-0.1-0.4-0.1-0.6,0c-2.3,2.6-5.5,4.3-8.8,5.2
			c-0.3,0-0.7,0.3-0.9,0c-0.6-1.5-1.2-3.1-1.6-4.7c-0.1-0.2-0.2-0.9,0.2-1.1c0,0,0.2-0.1,0.8-0.2c0,0,0,0,0.1,0
			c0.1,0,0.5-0.1,0.9-0.2c3.6-0.8,7.2-2.3,9.4-5.5c0.3-0.5,0.5-1.1,0.8-1.7c0.2,0.1,0.3,0.4,0.4,0.7l0,4.7c0,0.4-0.1,1,0.3,1.1
			c0.4-0.2,0.8-0.6,0.9-1l0-3.6c-0.3-1.3-0.5-2.5-1.4-3.5c0-1.1,0-2.1-0.3-3.1c-0.9-3.3-4.3-5.2-7.5-5.7c-0.4-0.1-0.9-0.1-1.2-0.2
			c0.3-0.8,0.8-1.5,1.1-2.3c0,0,0,0,0,0c0-0.1-0.1-0.2-0.1-0.2c-0.7-0.3-2.9-0.3-2.9-0.3c-2.6,0-2.7,0.5-2.7,0.5
			c-0.4,0.4-1.8,2.5-1.8,2.5c-1.4,0.3-2.7,0.5-4,0.9c-4.8,1.5-9.3,3.9-13.2,7.5c-2.4,2.5-4.6,5.5-3.8,9.1c0,0.3-0.3,0-0.4,0.1
			c-0.8,1.7-0.5,3.8-0.5,5.7c0.1,1.1,0.2,2.2,0.9,3.1c0.1,0.2,0.4,0.1,0.4,0.3c-1.1,1.2-2.1,2.2-3.4,3.3c-2.2,1.8-4.5,3.6-7.5,3.2
			c-2.6-0.3-4.1-3.2-6.9-2.7c-0.1,0-0.2,0.1-0.4,0.1c-0.6,0.3-0.6,0.8-0.6,0.8l0,0C30.5,99.3,30.5,99.4,30.6,99.5 M147.3,85
			c0.9-0.7,2.6-1.4,4.2-1.5c0.1,0,0.4,0,0.3,0.2c0,0.3-0.4,0.5-0.6,0.7c-1.1,0.7-2.5,1.4-3.7,1C147.3,85.4,147,85.3,147.3,85
			 M94.7,85.3c0.9-0.7,2.6-1.4,4.2-1.5c0.1,0,0.4,0,0.4,0.2c0,0.3-0.4,0.5-0.6,0.7c-1.1,0.7-2.5,1.4-3.7,1
			C94.7,85.7,94.4,85.6,94.7,85.3 M48.9,85.9L48.9,85.9c0.7,0.9,1.6,1.6,2.7,1.9c1.2,0.3,2.5,0.2,3.3-0.8c0.2-0.2-0.1-0.4-0.1-0.6
			c-0.1-0.4-0.2-0.8-0.2-1.2c-0.1-1.2,0-2.2,0.2-3c1.7-5.4,7.1-10.3,12.7-11.6c0,0,0,0,0,0c0,0,0,0,0,0l0,0c0,0,0.1,0,0.1,0
			c0,0,0,0.1,0,0.1c0,0-0.1,0.2-0.2,0.3l0,0L62.5,78l-5.4,7.1c-2.4,3-4.6,5.9-7.2,8.7c-0.1,0.1-0.2,0-0.4-0.1l-0.2-0.3
			C49.2,90.9,48.9,88.4,48.9,85.9"/>
		<path class="st1" d="M155.6,89.9c0.1,0.1,0.2,0.2,0.3,0.2c0.4-0.2,0.6-0.5,0.7-0.9l0-2.1c0-0.4-0.1-1.1-0.2-1.5
			c-0.2-0.9-0.7-0.8-0.7-0.8c-0.2,0-0.2,0.2-0.2,0.2v0.2l0,1.3C155.6,87.5,155.6,88.7,155.6,89.9"/>
		<path class="st1" d="M190.6,94.2v-1.4h0c0-1-0.3-1.5-0.7-1.5c-0.4,0-0.7,0.3-0.7,0.6l0,4.7c-0.2,0.5-0.6,1-1,1.4
			c-3.4,3.7-7.8,6.4-13,6.5c-2.8,0-5.3-0.5-7.6-1.8c-1-0.6-2.3-1.6-2.5-2.8c0-2.2-0.2-4.4-0.2-6.6c-0.1-0.3-0.3-0.5-0.7-0.5
			c-0.3,0-0.7-0.1-0.8,0.2c-1.4,2.4-3.5,4.3-5.9,5.9c-4,2.5-8.1,4.6-13.1,4.9l-2.3-0.2c-2.7-0.3-6.1-1.5-6.7-4.5c0-1.7,0-3.4-0.2-5
			c-0.1-0.5-0.5-0.6-0.7-0.6c-1.2,0-2.4,0.1-3.4,0.7c-3.5,4.1-8.2,7.1-13.1,8.7c-3.8,1.3-8.6,0.8-11.4-2.2c-0.4-0.3-0.7-0.9-1.2-1.1
			c-0.6-0.1-1,0.3-1.5,0.6c-2.4,2-5.1,3.2-8.1,3.6c-0.8,0.2-1.7,0.2-2.5,0.4c0,1.6-0.1,3.1-0.1,4.7c-0.3,0.8-1.3,1.3-2.1,1.7
			c-3.5,1.4-8,2.4-11.8,1c0,0,0,0,0,0c-0.8-0.2-5.2-1.8-9.3-9.6c-2-3.5-3.2-7.2-4.1-11.1l0,0c-0.1-0.3-0.5-0.3-0.5-0.3
			c-0.3,0-0.5,0.2-0.6,0.3h0c-5,6.5-11.4,13.5-19.1,16.6c-3.8,1.7-9.2,1.9-12.9-0.1c-0.8-0.5-1.9-1.2-2.2-2.2l-0.1-4.4l0,0
			c0-0.3-0.2-0.5-0.5-0.5s-0.5,0.2-0.5,0.5v0.1v0l-0.1,5.5c0,0.6,0.7,1,1.1,1.4c3.4,2.4,8,3.2,12.2,2.3c7.6-1.8,14.1-7.4,19.2-13.5
			c0.1-0.1,0.2-0.3,0.3-0.4c0.8-0.9,1.8-2.1,2.2-2.6c0,0,0.1-0.1,0.2-0.1c0.1,0,0.1,0,0.1,0c0.1,0,0.1,0.1,0.2,0.2l0,0
			c1.3,4.7,3.2,9.2,6.2,13.2c2.6,3.7,6.5,6.5,11.1,6.7c2.3,0.2,4.6-0.1,6.7-0.7c2.1-0.5,4.1-1.6,5.6-3.2l0-4l0.1-0.2
			c3.7-0.4,7-1.5,9.9-3.9c0.2-0.1,0.5-0.4,0.8-0.2c2.7,2.8,6.2,4.2,10.2,3.6c5.1-0.9,9.6-3.3,13.7-6.7c1.2-0.9,2.1-2.5,3.5-3
			c0.3-0.1,0.8-0.3,1.1,0c0,1.6,0.1,3.1,0,4.7c0,0.9,0.5,1.6,1.1,2.3c2.5,2.4,5.9,2.8,9.4,3c2.6,0,4.9-0.7,7.2-1.5
			c3.9-1.6,7.8-3.6,10.8-7.1c0.4-0.3,0.5-0.9,1-1c0.1,0,0.2,0.2,0.2,0.2l0.2,4.3c0,0.6,0.3,1.1,0.6,1.6c2.1,2.6,5,3.5,8.1,4.1
			l2.5,0.2c4.9,0,8.9-2.4,12.5-5.4c1.1-1,2.3-2,3-3.2L190.6,94.2z"/>
		<path class="st1" d="M170.1,81.6c-1.3,0-2.3-1-2.3-2.3c0-1.3,1.1-2.3,2.4-2.3c1.3,0,2.3,1,2.3,2.3
			C172.4,80.6,171.4,81.6,170.1,81.6 M170.1,82.1c1.6,0,2.9-1.3,2.9-2.8c0-1.6-1.3-2.8-2.9-2.9c-1.6,0-2.9,1.3-2.9,2.8
			C167.2,80.8,168.5,82.1,170.1,82.1 M170.8,79.6c0.6,0,0.9-0.3,0.9-0.8c0-0.3-0.1-0.6-0.4-0.8c-0.2-0.1-0.6-0.1-0.8-0.2l-1.5,0
			l0,3.1h0.6l0-1.3h0.6l0.7,1.3l0.7,0L170.8,79.6z M169.5,79.1l0-0.9h0.8c0.3,0,0.7,0,0.7,0.4c0,0.4-0.2,0.5-0.6,0.5L169.5,79.1z"/>
		<path class="st2" d="M86.1,112c-3,2.1-4.5,5.5-6.3,8.4v0.3c0.2-0.2,0.6-0.2,0.8-0.3c2.6-1.7,4.5-4.3,6.4-6.5
			c0.4-0.6,0.8-1.3,0.6-2C87.2,111.3,86.7,112,86.1,112"/>
		<path class="st1" d="M110.7,118.3c0.5,0,1-0.4,1-1c0-0.5-0.4-1-1-1c-0.5,0-1,0.4-1,1C109.7,117.9,110.2,118.3,110.7,118.3"/>
		<path class="st1" d="M131.2,117.5c0,0.1,0,0.2,0.1,0.2c0.2,0.4,0.6,0.6,1,0.6c0.3,0,0.6-0.2,0.8-0.5c0.1-0.3,0.2-0.6,0.1-0.9
			c0,0,0,0,0,0c-0.1-0.4-0.5-0.7-0.9-0.7c-0.5,0-1,0.4-1,1C131.2,117.4,131.2,117.5,131.2,117.5"/>
		<path class="st1" d="M141.7,120.7c0.5,0.1,0.9-0.4,1-0.9c0.1-0.6-0.2-1.1-0.7-1.2c-0.5-0.1-0.9,0.4-1,0.9
			C140.9,120.1,141.2,120.6,141.7,120.7"/>
		<path class="st1" d="M144.6,120.7c0.5,0.1,1-0.3,1.1-0.9c0.1-0.6-0.2-1.1-0.7-1.2c-0.5-0.1-1,0.3-1.1,0.9
			C143.8,120,144.2,120.6,144.6,120.7"/>
		<path class="st1" d="M166.5,127.2c0.8-1,1.8-2,1.8-3.3c0-0.1,0-0.2,0-0.3v0c0,0,0,0,0,0c0-0.3-0.2-0.8-0.9-1c0,0-0.5-0.1-1.4,0.1
			c0,0,0,0,0,0c-0.2,0.1-0.4,0.1-0.7,0.3c-0.7,0.3-1.2,0.7-1.2,0.7c-0.2,0.1-0.3,0.2-0.3,0.2h0c-0.2,0.1-0.3,0.2-0.5,0
			c0-0.1,0-0.1,0-0.2c0-0.2-0.1-0.4-0.2-0.5c0,0,0,0,0-0.1v0c-0.2-0.3-0.5-0.5-0.7-0.5c-0.1,0-0.2,0-0.3,0h0h0c-0.2,0-0.5,0-0.9,0.2
			c0,0-0.2,0.1-0.4,0.2c-0.1,0-0.2,0.1-0.3,0.2c-0.1,0-0.1,0.1-0.2,0.1l0,0c-0.3,0.2-0.7,0.5-1.1,0.9c-0.8,0.7-1.5,1.4-2.2,2.1
			c-0.1,0.2-2,2.1-2.2,2.3c-1,0.9-2,2.1-3.3,2.4c-0.3,0-0.7,0.1-0.8-0.3c-0.2-1,0.3-1.8,1.1-2.5c1.6-0.9,3.4-1.6,4.5-3.3
			c0,0,0,0,0,0c0.7-1.1,0.4-1.8,0.4-1.8c0-0.1-0.1-0.1-0.1-0.2c0,0-0.1-0.1-0.1-0.1c-0.1-0.1-0.2-0.1-0.2-0.1
			c-0.5,0-1.3,0.4-1.3,0.4c-1.3,0.5-2.4,1.5-3.4,2.5c-0.2,0.2-0.6,0.6-1,1c-0.8,0.8-1.5,1.7-2.4,2.3c-0.9,0.7-1.7,1.5-2.8,1.8
			c-0.2,0-0.4,0-0.4,0c0,0-0.1,0-0.1-0.1c-0.1-0.1-0.2-0.2-0.2-0.3c0-0.1,0-0.2,0-0.2c0.1-0.2,0.3-0.7,0.5-0.9
			c2.2-3,4.7-5.7,7.1-8.7c0.4-0.5,1.1-0.1,1.6-0.3c0.2-0.2,0.4-0.3,0.4-0.6c-0.3-0.1-0.8,0.1-1.1-0.2c0.7-1,1.5-1.9,2.2-2.9l-1.8,0
			c-1.1,0.9-1.8,2-2.8,3l-0.9,0.1c-0.3,0.1-0.4,0.4-0.5,0.7c0.3,0.1,0.6-0.1,0.8,0.2c-2.4,2.8-4.8,5.5-7.6,8.1
			c-0.2,0.2-0.4,0.4-0.6,0.6c-0.8,0.8-1.3,1.2-1.6,1.3c-0.2,0.1-0.4,0.2-0.6,0.3c-0.4,0.1-0.4-0.2-0.4-0.2c0-0.1,0.1-0.2,0.1-0.3
			c1.7-2.4,3.6-4.8,5.2-7.2l0-0.1c0-0.1,0-0.1,0-0.1c0,0-0.1,0-0.1,0c0,0-0.1,0-0.1,0c-0.8,0-1.7-0.1-2.3,0.2
			c-0.4-0.6-1.2-0.6-1.8-0.5c0,0,0,0-0.1,0c-0.5,0.1-1.3,0.4-2.6,1.1c-1.5,0.8-2.8,1.9-4,3.3l-0.2,0.1c-0.9,0.8-1.7,1.7-2.7,2.4
			c-0.2,0.2-0.5,0.5-0.9,0.7l0,0c-1.2,0.8-1.4,0.4-1.4,0.4c-0.2-0.2,0-0.6,0-0.7c0.1-0.2,0.2-0.3,0.3-0.5c2.2-3.1,4.8-5.9,7.2-8.8
			c0.4-0.4,1.1-0.1,1.6-0.2c0.1-0.2,0.3-0.4,0.3-0.6c-0.3-0.1-0.8,0-1.1-0.1c0.6-1,1.5-1.9,2.2-3c-0.7,0-1.3-0.1-2,0l-2.7,3l-1,0.1
			c-0.2,0.1-0.4,0.4-0.5,0.6c0.3,0.1,0.7-0.1,0.8,0.2c-2.3,2.8-4.7,5.7-7.5,8.1c-0.4,0.4-0.9,0.8-1.4,1.1c-0.3,0.3-0.7,0.5-1.1,0.7
			c-0.2,0.1-0.3,0.1-0.3,0.1c-0.3,0-0.2-0.3-0.2-0.4c0,0,0-0.1,0.1-0.1c0-0.1,0.1-0.2,0.1-0.3c0.1-0.2,0.4-0.6,0.5-0.7l4.6-5.8
			l0.1-0.3h-1.9c-2.1,2.6-4.3,5.2-6.9,7.2c0,0,0,0,0,0c-0.2,0.2-0.5,0.4-0.8,0.5c0,0,0,0,0,0c-0.5,0.2-0.7,0-0.7,0
			c-0.2-0.1-0.1-0.3-0.1-0.4c0,0,0-0.1,0-0.1c0.1-0.2,0.3-0.6,0.4-0.8c1.4-2.2,3.1-4.3,4.8-6.4c2.3-1.6,4.6-3.3,6.4-5.5
			c0.6-0.7,1.1-1.5,1.5-2.3l0-0.1c0,0,0,0,0,0l0,0c0.2-0.6-0.3-0.9-0.3-0.9c-0.4-0.2-0.9-0.1-0.9-0.1c-0.6,0.1-1.8,1.2-1.8,1.2l0,0
			c-1.4,1.2-2.6,2.6-3.8,3.9c-2.7,2.9-4.8,6.2-7.6,8.9c-0.3,0.3-1.5,1.5-2.2,2.1c-0.3,0.2-0.6,0.5-1,0.6c-0.4,0.1-0.4-0.2-0.4-0.2
			c0-0.1,0.1-0.2,0.1-0.3c1.7-2.4,3.6-4.8,5.2-7.2l0-0.1c0-0.1,0-0.1,0-0.1c0,0,0,0,0,0c0,0-0.1,0-0.2,0c-0.8,0-1.7-0.1-2.3,0.2
			c-0.4-0.6-1.2-0.6-1.8-0.5c0,0,0,0-0.1,0c-0.4,0.1-1.3,0.4-2.6,1.1c-1.5,0.8-2.8,1.9-4,3.3l-0.2,0.1c-0.9,0.8-1.7,1.7-2.7,2.4
			c-0.2,0.2-0.8,0.6-1.2,0.9c-0.2,0.1-0.4,0.2-0.6,0.2c-0.2,0-0.2-0.1-0.3-0.2c0-0.2,0.1-0.5,0.3-0.7c1.7-2.2,3.6-4.5,5.2-6.8H108
			h-2.1l-0.1,0.1l0,0l-1.3,1.6c-1.9,2.5-4.3,4.3-6.6,6.1l0,0c-0.1,0.1-0.2,0.1-0.2,0.1c0,0,0,0-0.1,0c-0.1,0-0.1-0.1-0.1-0.1
			c-0.1-0.2,0.1-0.3,0.1-0.4c1.8-1.5,3.5-3.2,4-5.4c0.2-0.7,0.1-1.6-0.5-2.1c-0.2-0.1-0.4-0.1-0.6-0.1c-0.1,0-0.2,0-0.2,0
			c-1,0.1-2.6,1.7-2.6,1.7c-1.2,1.2-2.3,2.5-3.5,3.6c-1.1,1-2.2,2.3-3.6,2.7c-0.3,0-0.7,0.1-0.8-0.3c-0.2-1,0.3-1.8,1.1-2.5
			c1.6-0.9,3.4-1.6,4.5-3.3c0,0,0,0,0,0c0.7-1.1,0.4-1.8,0.4-1.8c0-0.1-0.1-0.1-0.1-0.2c0,0-0.1-0.1-0.1-0.1
			c-0.1-0.1-0.2-0.1-0.2-0.1c-0.5,0-1.3,0.4-1.3,0.4c-1.3,0.5-2.4,1.5-3.4,2.5c-0.3,0.3-1,0.9-1.5,1.7c-1.2,1.4-2.6,2.7-4.2,3.7
			c-0.2,0.1-0.5,0.1-0.7-0.1c-0.3-0.5,0-0.9,0.2-1.3c1.4-1.8,3.4-3.3,3.4-5.7c0,0,0,0,0,0c0-0.6-0.2-1-0.4-1.1c0,0-0.1-0.1-0.1-0.1
			c-0.5-0.3-1.3-0.2-1.8,0.1c-0.4,0.2-0.7,0.5-1,0.6c0.7-1.1,1.6-2.2,2.4-3.2l0.2-0.3c-0.6-0.1-1.1-0.1-1.7,0
			c-3,3.5-6,7.7-10.1,10.1H75c2.1-2.6,2.9-4.3,2.9-4.3c0.2-0.5,0.5-1.2,0.7-1.6c0.3-0.7,0.6-1.4,1-2.1c0.4-0.3,0.9-0.5,1.3-0.8
			c0.6-0.4,1.5-1,1.5-1c5-3.5,6-6.6,6-6.6c0.6-2-0.9-2.2-0.9-2.2c-0.9-0.1-1.8,0.4-1.9,0.5c-0.3,0.1-1,0.6-1.7,1.3
			c-0.4,0.3-0.8,0.7-1.3,1.2h0c-2.4,2.5-4.1,5.5-5.7,8.4c-0.4,0.3-0.9,0.5-1.3,0.8c0-0.2,0-0.3,0-0.5c-0.1-0.2-0.1-0.5-0.2-0.7
			c-0.8-2-3-2.6-4.9-2.7c-3.7,0-7.4,1.1-9.6,4c0,0-0.1,0.1-0.1,0.1h0c0,0-0.7,0.9-1.1,2.2c-0.6-0.3-0.9-0.5-0.9-0.5l0,0
			c-0.7-0.5-1.2-1.2-1.4-1.9c-0.6-1.7,0.1-3.6,1.3-4.8c2.9-2.8,6.5-3.8,10.3-4.4c2.9-0.3,5.8-0.1,8.5,0.3c0,0,0.1,0,0.1,0
			c0.2,0,0.4,0.1,0.7,0.1c1.1,0.2,2.2,0.6,2.5,0.7l0.2,0.1c0,0,0-0.1-0.1-0.1c-0.7-0.9-3.2-1.5-3.2-1.5c-3.5-0.9-7.8-0.7-11.2,0
			c-3.8,1.1-8.6,2.8-9.9,7.2c-0.4,1.9,0.6,3.7,2,4.9c0,0,0.1,0.1,0.1,0.1c0,0,0,0,0,0c0.1,0.1,0.3,0.2,0.5,0.4c0,0,0,0,0,0
			c0.1,0.1,0.2,0.1,0.4,0.2c-0.1,0.4-0.1,0.8-0.1,1.3c0,0.3,0.1,0.5,0.1,0.5l0,0c0.1,1,0.7,2,1.4,2.7c0.5,0.5,0.9,0.7,1,0.8
			c0.1,0.1,0.5,0.3,1,0.5c0.9,0.4,2,0.6,3.1,0.6c1.2,0,2.6,0,4.2-0.4c0,0,2.8-0.8,5.3-2.3l2-1.1c0.1,0,0.3-0.2,0.4,0
			c0.1,0.3-0.3,0.4-0.3,0.6l-5.9,7.9l-0.3,0.5c0.6,0.1,1.3,0.1,2,0c3-3.9,5.9-7.8,8.9-11.7c1.1-1.2,2.3-2.7,3.9-3c0,0,0.2,0,0.3,0.1
			c0,0,0,0,0,0c0,0,0,0.1,0.1,0.1c0,0.1,0,0.2-0.1,0.4c0,0-0.3,0.8-0.8,1.3l0,0c-0.8,1-1.6,1.8-2.2,2.8l0,0c0,0-1.2,1.7-0.9,2.9
			c0.2,0.5,0.6,0.8,1,0.8c0.1,0,0.7,0.1,1.7-0.5c0.9-0.5,1.7-1.4,2.6-2h0.2c0,0.1-0.1,0.1-0.1,0.2c-0.2,0.8,0,1.7,0.8,2.2
			c1.1,0.4,2.3-0.1,3.2-0.7c1.5-1.3,3-2.7,4.3-4.2c0.6-0.7,1.6-1.7,2.2-2.3c0.5-0.4,0.9-0.9,1.5-0.9c0.1,0,0.2,0,0.3,0.1
			c0,0,0,0,0,0c0,0,0.1,0.1,0.1,0.3c0,0-0.1,0.5-0.5,1.2c0,0,0,0.1-0.1,0.1c0,0,0,0,0,0v0c-1.2,1.9-3,3.7-4.4,5.4
			c-0.1,0.2-0.4,0.5-0.4,0.6c0,0-0.1,0.3,0.6,0.3h0c0.3,0,0.8-0.1,1.1,0.1c0,0,0.1,0.1,0,0.2c0,0,0,0,0,0c0,0,0,0,0,0
			c0,0.1-0.2,0.3-0.6,0.7c0,0-0.5,0.6-1,1v0c-1.4,1.2-2.7,2.4-3.9,3.7c-0.5,0.6-1.4,1.7-2.3,2.9c-0.4,0.7-0.8,1.3-0.8,2.1
			c0,0.3,0,1.1,0.7,1.2c0,0,0.1,0,0.2,0c0.1,0,0.2,0,0.3,0c0.2,0,0.7-0.2,1.8-1.1c1.7-1.3,3.3-3,4.5-4.6c1.3-1.6,2.2-3.4,2.5-5.4h0
			c0-0.1,0-0.1,0-0.2c0,0,0-0.2,0.3-0.4c0,0,0,0,0-0.1c0,0,0,0,0,0c0.2-0.2,1-1,2-1.7c0,0,0.3-0.2,0.5-0.2h0c0.2,0,0.2,0.4,0.2,0.4
			c0,0.6,0.1,0.9,0.2,1c0,0,0,0.1,0.1,0.1c0.1,0.1,0.3,0.3,0.7,0.4h0h0h0.1c1.6,0,2.8-1.4,4-2.4c0.1,0,0.2-0.1,0.2-0.1
			c0,0,0.1,0,0.1,0.2c0,0.1,0,0.2,0,0.3c0,0,0,0,0,0c0,0.1,0,0.2,0,0.3c0,0.4,0.1,1.1,0.8,1.4c0,0,0.1,0,0.1,0
			c1.6,0.5,3.1-0.4,4.1-1.4c0,0,0,0,0.1,0c0,0,0.1,0,0.1,0.1c0,0.1,0,0.1,0,0.1c-0.1,0.5,0.1,0.8,0.1,0.8c0.4,0.7,1.2,0.6,1.5,0.6
			c1.2-0.2,2.1-1.4,3.1-2.1c0.1-0.1,0.4-0.3,0.5,0c0.1,0.6-0.2,1.4,0.2,1.8c0,0,0,0.1,0.1,0.1c0,0,0,0,0,0h0
			c0.2,0.1,0.5,0.2,1.2,0.1v0c1.2-0.2,2.2-1.2,3.2-1.9c0.1,0,0.2-0.1,0.2,0c0.2,0.1,0,0.5,0,0.5c0,0,0,0.1,0,0.1h0
			c0,0-0.3,1,0.4,1.3c0.1,0,0.1,0,0.2,0.1c0,0,0,0,0.1,0h0c0,0,0.1,0,0.1,0c1.9,0,3.3-1.5,4.6-2.7h0.2c-0.1,0.3-0.2,0.6-0.3,0.9h0
			c0,0-0.2,1,0.3,1.5c0.3,0.3,0.7,0.4,1.1,0.3c0.8,0,1.3-0.4,1.4-0.4c0.9-0.5,1.6-1.3,2.4-1.9c0.1,0,0.2-0.1,0.2-0.1
			c0,0,0.1,0,0.1,0.2c0,0.1,0,0.2,0,0.3c0,0,0,0,0,0c0,0.1,0,0.2,0,0.3c0,0.4,0.1,1.1,0.8,1.4c0,0,0.1,0,0.1,0
			c1.6,0.5,3.1-0.4,4.1-1.4c0,0,0,0,0.1,0c0,0,0.1,0,0.1,0.1c0,0.1,0,0.1,0,0.1c-0.1,0.5,0.1,0.8,0.1,0.8c0.3,0.6,1.1,0.6,1.4,0.6
			c0.3,0,0.6-0.1,0.9-0.2c1.2-0.4,2.3-1.4,2.6-1.6c0,0,0,0,0,0l0,0c0.4-0.3,0.9-0.9,0.9-0.9h0.2c-0.1,0.3-0.2,0.6-0.3,0.9h0
			c0,0-0.2,1,0.3,1.5c0.1,0.1,0.2,0.2,0.3,0.2c0.5,0.3,1.1,0.2,1.4,0.1c0.3,0,0.7-0.2,1.2-0.5c0.9-0.5,1.7-1.4,2.6-2h0.2
			c0,0.1-0.1,0.1-0.1,0.2c-0.2,0.8,0,1.7,0.8,2.2c1.1,0.4,2.3-0.1,3.2-0.7c1.5-1.3,3-2.7,4.3-4.2c0,0,0,0,0,0
			c0.6-0.6,1.2-1.2,1.9-1.8c0.1-0.1,0.3-0.3,0.4-0.4c0,0,0,0,0,0c0.6-0.5,1-0.8,1.2-0.9c0,0,0,0,0.1,0c0,0,0.1-0.1,0.1-0.1
			c0,0,0,0,0,0c0,0,0,0,0.1,0c0.1-0.1,0.3-0.1,0.5,0c0,0,0.3,0.1,0.2,0.5c0,0,0,0,0,0.1c-0.1,0.2-0.3,0.4-0.5,0.6
			c-1.8,2.2-3.8,4.4-5.6,6.6c0.6,0.1,1.4,0.1,2.1,0c2.2-2.2,4-5.2,6.6-7.1c0.3-0.2,0.7-0.5,1.2-0.7c0.1,0,0.3-0.1,0.4-0.1
			c0.1,0,0.2,0,0.2,0c0.1,0,0.2,0.1,0.2,0.1c0,0,0,0,0,0c0,0,0.3,0.3-0.2,1l-0.1,0.1c-1.1,1.5-2.7,3-3.7,4.5l0,0c0,0-0.9,1.3-0.2,2
			h0c0,0,0,0,0,0c0.4,0.4,1,0.4,1.6,0.3h0c0,0,0.7,0,1.8-0.7c0.7-0.5,1.3-1.1,1.8-1.7c-0.5-0.3-0.9,0-1.2,0.3
			c-0.2,0.2-0.6,0.5-1.1,0.9c-0.3,0.2-0.5,0.3-0.8,0.2c-0.1,0-0.2-0.1-0.2-0.1c-0.1-0.1-0.1-0.2,0-0.3
			C164.7,129,165.7,128.1,166.5,127.2 M152.7,126.6c0.1-0.2,0.7-1,2.4-2.7c0.2-0.2,0.4-0.4,0.6-0.4c0.1,0,0.2,0,0.3,0l0,0h0
			c0,0,0.2,0.1,0.1,0.4l0,0.1c-0.2,0.7-0.9,1.2-1.5,1.7C154,126.1,153.3,126.5,152.7,126.6C152.6,126.7,152.7,126.7,152.7,126.6
			 M125,120.6c0,0,0.1-0.1,0.1-0.2c1.5-1.7,2.8-3.6,4.4-5.2c0.1-0.1,0.2-0.1,0.2-0.2c0.1,0,0.1-0.1,0.2-0.1c0.2,0,0.4,0,0.5,0.1
			c0,0,0.1,0.1,0,0.3c-0.5,1.1-1.4,2-2.2,2.8C127.3,119,126.3,120,125,120.6C125,120.7,125,120.6,125,120.6 M91.7,126.6
			c0.1-0.2,0.7-1,2.4-2.7c0.2-0.2,0.4-0.4,0.7-0.4c0.1,0,0.2,0,0.3,0c0,0,0,0,0,0c0,0,0.2,0.1,0.1,0.4l0,0.1
			c-0.2,0.7-0.9,1.2-1.5,1.7C93,126.1,92.4,126.5,91.7,126.6C91.7,126.7,91.7,126.7,91.7,126.6 M80,120.3l0.1-0.1
			c0.2-0.3,0.3-0.6,0.5-0.9c0.7-1.2,1.5-2.6,1.5-2.6c0.3-0.5,0.6-1,0.9-1.4c0.7-1,1.6-2,2.6-2.8c0.4-0.3,0.7-0.5,0.9-0.6
			c0.2-0.1,0.5-0.2,0.8-0.1c0,0,0.5,0.2,0.1,1.2c-0.1,0.1-0.2,0.4-0.4,0.7c-0.5,1-1.8,2.7-4.2,4.8c-0.6,0.5-1.1,0.9-1.6,1.3
			c0,0,0,0,0,0c-0.9,0.6-1.4,0.9-1.4,0.9C79.8,120.7,79.9,120.6,80,120.3 M62.3,123.1c1-1.1,2.4-1.9,3.7-2.3c2.1-0.6,4.9-1,7-0.1
			c0.7,0.3,1.5,1,1.7,1.8c0.1,0.4,0.1,0.8,0,1.2c-0.2,0.1-0.3,0.2-0.5,0.3c-1.2,0.6-2.3,1-2.3,1c0,0-0.1,0-0.2,0.1
			c-0.6,0.2-1.2,0.5-1.8,0.6c-1.9,0.6-3.5,0.8-4.5,0.8c-0.4,0-0.8,0-1.2,0c-0.2,0-0.5,0-0.7,0c0,0,0-0.1,0-0.1
			c0-0.1,0.1-0.2,0.1-0.3c1.1-2,3.4-2.8,5.2-3.2c1.4-0.4,3.4-0.4,4.7,0.1l0-0.1c-0.1-0.1-0.1-0.1-0.2-0.2c-0.8-0.6-2-0.7-2.9-0.7
			c0,0,0,0,0,0c-0.1,0-0.2,0-0.3,0c-0.2,0-0.4,0-0.6,0c-2.4,0.2-4.7,1-6.3,2.6l0,0c0,0-0.7,0.6-1,1.6c-0.6-0.1-1.1-0.2-1.5-0.3
			C60.9,125.4,61.3,124.3,62.3,123.1 M73.9,125.2c0,0-1,1.8-3.4,3c0,0-1.3,0.8-3.3,0.9c0,0-1.8,0.1-2.9-0.4
			c-0.5-0.2-0.8-0.5-0.9-0.8c-0.1-0.1-0.1-0.3-0.1-0.5c1.2,0.1,2.1,0,2.1,0c2-0.2,3.8-0.7,4.8-1c0.5-0.1,1-0.3,1.4-0.5
			C72.7,125.6,73.3,125.4,73.9,125.2C73.8,125.2,73.8,125.2,73.9,125.2C73.9,125.2,73.9,125.2,73.9,125.2 M72.7,129.1
			c0,0-3.7,2.8-8.1,2c-0.8-0.1-4.2-0.7-4-4.2c0.5,0.2,1,0.3,1.5,0.4c0,0,0,0,0,0c0,0.5,0.2,2.7,4.2,2.8c2.4,0.1,4.8-0.9,6.5-2.5
			c1-0.9,1.9-1.9,2.5-3c0.2-0.1,0.4-0.2,0.7-0.3l0.1,0C76.2,124.2,75.5,127.1,72.7,129.1 M93.8,137.7L93.8,137.7
			C93.8,137.7,93.8,137.7,93.8,137.7c-0.3,0.5-0.7,0.9-1,1.4c-0.6,0.8-1.4,1.8-2.1,2.5c-0.2,0.2-0.5,0.5-0.8,0.7
			c-0.1,0.1-0.2,0.2-0.3,0.2c0,0,0,0,0,0l0,0c-0.2,0.1-0.4,0.2-0.4,0.2c-0.4,0.1-0.4-0.2-0.4-0.2c-0.2-0.6,1-2.2,1-2.2v0
			c1.4-2.2,3.4-4.2,5.6-5.7c0.1,0,0.3,0,0.3,0.2C95.2,135.8,94.5,136.8,93.8,137.7 M109.4,130.4c-0.6,0.3-1,0.3-1,0.3
			c-0.5-0.1-0.4-0.6-0.3-0.8c0-0.1,0.1-0.2,0.1-0.3c0.2-0.3,0.5-0.7,0.6-1c1.5-2,3.5-4.2,5.8-5.1c0.1,0,0.3-0.1,0.4-0.1c0,0,0,0,0,0
			c0,0,0,0,0,0c0,0,0,0,0.1,0c0.1,0,0.2,0.1,0.2,0.3c0,0.4-0.2,0.8-0.4,1.1c-0.2,0.3-0.4,0.7-0.7,1c0,0,0,0,0,0
			C113,127.7,111.3,129.3,109.4,130.4 M135.4,130.4c-0.6,0.3-1,0.3-1,0.3c-0.5-0.1-0.4-0.6-0.3-0.8c0-0.1,0.1-0.2,0.1-0.3
			c0.2-0.3,0.5-0.7,0.6-1c1.5-2,3.5-4.2,5.8-5.1c0.1,0,0.3-0.1,0.4-0.1c0,0,0,0,0,0c0,0,0,0,0,0c0,0,0.1,0,0.1,0
			c0.1,0,0.2,0.1,0.2,0.3c0,0.4-0.2,0.8-0.4,1.1c-0.2,0.3-0.4,0.7-0.7,1c0,0,0,0,0,0C139,127.7,137.3,129.3,135.4,130.4"/>
	</g>
</g>
</svg>
