<svg xmlns="http://www.w3.org/2000/svg" fill="none" viewBox="0 0 206 79" height="79" width="206">
<g clip-path="url(#clip0_41_277)">
<path fill="#E1231D" d="M51.29 12.75C54.95 12.72 60.31 12.75 60.31 12.75L63.81 0.0300084H47.37C47.37 0.0300084 41.67 -0.449992 37.71 2.35001L36.9 2.97001C34.45 4.99001 32.01 8.37001 30.54 14.01C26.53 29.37 17.77 61.32 17.77 61.32C17.77 61.32 17.77 65.51 11.5 65.51H3.55L0 78.29L17.44 78.36C17.44 78.36 25.11 78.65 30.37 71.83C32.05 69.56 32.52 66.54 33.68 62.33C38.49 44.96 38.49 44.76 38.49 44.76L45.59 19C45.59 19 46.1 17 46.84 15.38C46.84 15.38 47.61 12.78 51.27 12.75" clip-rule="evenodd" fill-rule="evenodd"></path>
<path fill="#1D1D1B" d="M199.61 14.03C197.13 14.03 195.12 12.1 195.12 9.72999C195.12 7.35999 197.13 5.42999 199.61 5.42999C202.09 5.42999 204.1 7.35999 204.1 9.72999C204.1 12.1 202.08 14.03 199.61 14.03ZM199.61 5.97999C197.44 5.97999 195.67 7.65999 195.67 9.72999C195.67 11.8 197.44 13.48 199.61 13.48C201.78 13.48 203.55 11.8 203.55 9.72999C203.55 7.65999 201.78 5.97999 199.61 5.97999Z"></path>
<path fill="#1D1D1B" d="M198.7 9.55V8.13H199.77C200.43 8.13 200.76 8.37 200.76 8.84C200.76 9.27 200.4 9.55 199.83 9.55H198.71H198.7ZM198.7 10.25H199.52C200.38 10.25 200.64 10.55 200.67 11.61C200.68 11.98 200.69 12.03 200.81 12.21H201.77C201.66 11.99 201.64 11.89 201.61 11.44L201.58 11.04C201.55 10.58 201.47 10.36 201.26 10.17C201.07 10 200.89 9.95 200.46 9.92C200.88 9.85 201.01 9.81 201.25 9.65C201.57 9.46 201.76 9.10001 201.76 8.72001C201.76 8.29001 201.52 7.85 201.16 7.62C200.87 7.44 200.57 7.38 199.98 7.38H197.72V12.21H198.71V10.25H198.7Z" clip-rule="evenodd" fill-rule="evenodd"></path>
<path fill="#1D1D1B" d="M90.64 66.21L91.5 66.77H97.81L107.95 31.12C107.95 31.12 109.67 23.92 103.85 23.66C98.03 23.4 96.1 23.66 96.1 23.66C96.1 23.66 91.93 24.39 90.87 28.74C90.45 30.47 90.01 31.92 89.72 33.05L89.11 35.88H96.1L96.64 33.55C97.29 31.08 97.47 30.46 98.07 29.89C98.53 29.45 101.48 28.57 100.65 32.18C99.82 35.79 98.99 38.35 98.99 38.35C98.99 38.35 97.79 40.2 94.37 41.08C91.44 41.84 86.99 43.11 85.88 47.25C84.77 51.39 81.91 61.26 81.91 61.26C81.91 61.26 80.99 66.55 85.14 66.72C85.14 66.72 88.57 67.2 90.5 66.28L90.63 66.22L90.64 66.21ZM97.62 44.66C97.62 44.66 94.16 44.81 93.05 47.83C91.94 50.85 89.56 58.83 89.56 58.83C89.56 58.83 89.02 60.59 90.77 60.77C92.05 60.9 92.79 60.16 93.39 58.37C93.99 56.58 96.9 47.29 96.9 47.29L97.63 44.65L97.62 44.66Z" clip-rule="evenodd" fill-rule="evenodd"></path>
<path fill="#1D1D1B" d="M197.95 28.23C198.72 28.15 199.18 28.72 198.97 29.51L190.98 59.32C190.77 60.11 189.97 60.81 189.19 60.9C188.42 60.98 187.96 60.41 188.17 59.62L196.16 29.81C196.37 29.02 197.17 28.32 197.95 28.23ZM195.28 23.56L202.98 23.49C205.43 23.47 206.91 25.34 206.3 27.67L197.21 62.37C196.6 64.71 194.12 66.62 191.67 66.64L183.97 66.71C181.52 66.73 180.04 64.86 180.65 62.52L189.74 27.82C190.35 25.48 192.83 23.57 195.28 23.55" clip-rule="evenodd" fill-rule="evenodd"></path>
<path fill="#1D1D1B" d="M154.95 28.28H155.39C156.21 28.25 156.69 28.86 156.46 29.64L152.54 43.34C152.32 44.12 151.47 44.77 150.66 44.79H150.22C149.4 44.82 148.92 44.21 149.15 43.43L153.07 29.74C153.29 28.96 154.14 28.31 154.95 28.28ZM150.17 53.53H156.53L154.23 62.86C154.23 62.86 152.43 66.74 148.92 66.74H140.95C140.95 66.74 135.31 67.01 137.15 60.23C138.99 53.44 146.1 28.42 146.1 28.42C146.1 28.42 146.29 26.69 148.02 25.2C149.13 24.44 150.18 23.69 153.2 23.65C161.14 23.53 159.43 23.65 159.43 23.65C159.43 23.65 164.73 23.75 163.27 29.75C161.8 35.74 157.73 49.83 157.73 49.83H147.67L144.8 58.73C144.8 58.73 143.86 61.3 146.31 60.85C148.27 60.5 148.27 60.06 148.78 58.29C149.33 56.35 150.17 53.53 150.17 53.53Z" clip-rule="evenodd" fill-rule="evenodd"></path>
<path fill="#1D1D1B" d="M122.46 66.74H114.89L121.61 42.82L126.55 27.02L127.63 23.65H134.27C134.27 23.65 134.4 25.03 135.7 24.46C136.99 23.89 138.93 23.4 140.09 23.67C141.24 23.93 143.83 24.73 142.91 28.34C141.99 31.95 141.02 35.3 141.02 35.3L138.94 42.39L138.13 44.67H131.57C131.57 44.67 131.83 44.11 132.15 42.7C132.47 41.29 135.38 31.34 135.38 31.34C135.38 31.34 135.52 30.99 135.66 30.33C135.8 29.67 135.66 29.01 134.55 28.74C133.44 28.48 132.77 29.78 132.77 29.78C132.7 29.93 132.62 30.09 132.56 30.28C131.84 32.6 128.36 45.3 128.36 45.3L123.7 61.91L122.47 66.75L122.46 66.74Z" clip-rule="evenodd" fill-rule="evenodd"></path>
<path fill="#1D1D1B" d="M112.11 32.35C111.16 35.74 109.36 41.46 109.36 41.46L105.3 55.99L102.48 66.74H109.86L115.12 48.15L120.61 29.39H122.82L124.72 23.65H122.98C122.98 23.65 121.8 23.95 122.4 22.17C123.14 20 124.55 14 124.55 14C124.55 14 125.05 11.19 127.87 11.14C130.21 11.1 130.95 11.12 130.95 11.12L132.48 5.51999H123.08C123.08 5.51999 119.27 5.78999 117.61 12.26L115.95 18.73L114.7 22.74C114.7 22.74 114.56 23.81 113.13 23.81H112.3L111.46 26.75L110.87 29.24V29.33H113.06L112.1 32.35H112.11Z" clip-rule="evenodd" fill-rule="evenodd"></path>
<path fill="#1D1D1B" d="M176.6 28.28C177.38 28.2 177.83 28.77 177.62 29.56L169.63 59.37C169.42 60.16 168.62 60.86 167.84 60.94C167.07 61.02 166.61 60.45 166.82 59.66L174.81 29.85C175.02 29.06 175.82 28.36 176.6 28.27M191.72 5.51001H185.07C185.07 5.51001 184.7 5.16001 184.24 6.70001C183.78 8.24001 181.19 17.62 181.19 17.62L179.3 24.14C179.3 24.14 179.02 25.02 178.28 24.84C177.54 24.66 174.82 23.56 173.11 23.87C171.4 24.18 169.33 24.27 168.17 26.95C167.02 29.64 165.31 36.11 165.31 36.11L162.13 47.69L158.81 59.71C158.81 59.71 157.98 63.89 158.63 64.91C159.27 65.92 160.75 68.04 164.72 66.76C168.69 65.48 165.64 66.45 165.64 66.45C165.64 66.45 167.13 65.45 167.4 65.7C167.82 66.1 168.05 66.8 168.05 66.8H174.88L175.8 63.63L177.78 56.67L179.58 50.11L183.64 35.31L187.56 20.82L191.71 5.49001L191.72 5.51001Z" clip-rule="evenodd" fill-rule="evenodd"></path>
<path fill="#1D1D1B" d="M78.45 28.28C79.29 28.2 79.78 28.77 79.55 29.56L70.93 59.37C70.7 60.16 69.84 60.86 69 60.95C68.17 61.03 67.67 60.46 67.9 59.67L76.52 29.86C76.75 29.07 77.61 28.37 78.45 28.29M88.16 24.2H81.05L79.99 25.26C79.99 25.26 78.65 24.6 77.77 24.38C76.83 24.14 74.4 24.29 73.48 24.6C72.56 24.91 70.16 26.05 69.32 29.45C68.49 32.84 62.58 54.11 62.58 54.11L60.64 61.51C60.64 61.51 59.35 66.8 65.44 66.89C71.53 66.98 68.76 66.89 68.76 66.89L67.84 70.85C67.84 70.85 67.65 72.96 63.5 72.96H57.87L56.12 79.04H67.2C67.2 79.04 72.74 79.57 75.05 71.73L77.36 63.89L84.56 37.73L88.16 24.21V24.2Z" clip-rule="evenodd" fill-rule="evenodd"></path>
<path fill="#1D1D1B" d="M56.05 62.83C56.05 62.83 54.22 66.8 50.71 66.8H42.74C42.74 66.8 37.1 67.07 38.94 60.29C40.78 53.51 47.89 28.48 47.89 28.48C47.89 28.48 48.08 26.75 49.81 25.26C50.92 24.5 51.97 23.75 54.99 23.71C62.93 23.59 61.22 23.71 61.22 23.71C61.22 23.71 66.52 23.82 65.06 29.81C63.59 35.8 59.52 49.89 59.52 49.89H49.46L46.59 58.79C46.59 58.79 45.65 61.36 48.1 60.91C50.05 60.56 50.06 60.13 50.57 58.35C51.13 56.41 51.96 53.6 51.96 53.6H58.45L56.1 62.65L56.04 62.84L56.05 62.83ZM56.74 28.28H57.18C58 28.25 58.48 28.86 58.25 29.64L54.33 43.33C54.1 44.11 53.26 44.76 52.45 44.79H52.01C51.19 44.82 50.72 44.21 50.94 43.43L54.86 29.74C55.08 28.96 55.93 28.31 56.74 28.28Z" clip-rule="evenodd" fill-rule="evenodd"></path>
</g>
<defs>
<clipPath id="clip0_41_277">
<rect fill="white" height="79" width="206"></rect>
</clipPath>
</defs>
</svg>
